# AST/ASF file generated using VICON BodyLanguage
# -----------------------------------------------
:version 1.10
:name VICON
:units
  mass 1.0
  length 0.45
  angle deg
:documentation
   .ast/.asf automatically generated from VICON data using
   VICON BodyBuilder and BodyLanguage model FoxedUp or BRILLIANT.MOD
:root
   order TX TY TZ RX RY RZ
   axis XYZ
   position 0 0 0  
   orientation 0 0 0 
:bonedata
  begin
     id 1 
     name lhipjoint
     direction 0.702568 -0.596508 0.388042 
     length 2.56661 
     axis 0 0 0  XYZ
  end
  begin
     id 2 
     name lfemur
     direction 0.34202 -0.939693 0  
     length 6.58374  
     axis 0 0 20  XYZ
    dof rx ry rz
    limits (-160.0 20.0)
           (-70.0 70.0)
           (-60.0 70.0)
  end
  begin
     id 3 
     name ltibia
     direction 0.34202 -0.939693 0   
     length 6.62538   
     axis 0 0 20   XYZ
    dof rx
    limits (-10.0 170.0)
  end
  begin
     id 4 
     name lfoot
     direction 0.10455 -0.287249 0.952133   
     length 2.26699   
     axis -90 7.62852e-016 20   XYZ
    dof rx rz
    limits (-45.0 90.0)
           (-70.0 20.0)
  end
  begin
     id 5 
     name ltoes
     direction 1.53572e-011 -4.22322e-011 1   
     length 1.12949   
     axis -90 7.62852e-016 20   XYZ
    dof rx
    limits (-90.0 20.0)
  end
  begin
     id 6 
     name rhipjoint
     direction -0.728055 -0.574632 0.373811   
     length 2.66432  
     axis 0 0 0  XYZ 
  end
  begin
     id 7 
     name rfemur
     direction -0.34202 -0.939693 0   
     length 6.66732   
     axis 0 0 -20   XYZ
    dof rx ry rz
    limits (-160.0 20.0)
           (-70.0 70.0)
           (-70.0 60.0)
  end
  begin
     id 8 
     name rtibia
     direction -0.34202 -0.939693 0   
     length 6.59288   
     axis 0 0 -20   XYZ
    dof rx
    limits (-10.0 170.0)
 end
 begin
     id 9 
     name rfoot
     direction -0.119193 -0.327479 0.93731   
     length 2.38061  
     axis -90 -7.62852e-016 -20   XYZ
    dof rx rz
    limits (-45.0 90.0)
           (-20.0 70.0)
  end
  begin
     id 10 
     name rtoes
     direction -1.53547e-011 -4.21827e-011 1   
     length 1.17899   
     axis -90 -7.62852e-016 -20   XYZ
    dof rx
    limits (-90.0 20.0)
  end
  begin
     id 11 
     name lowerback
     direction -0.000416114 0.999912 -0.0132284   
     length 2.12109   
     axis 0 0 0   XYZ
    dof rx ry rz
    limits (-20.0 45.0)
           (-30.0 30.0)
           (-30.0 30.0)
  end
  begin
     id 12 
     name upperback
     direction -0.00136371 0.99809 0.0617608   
     length 2.10067   
     axis 0 0 0   XYZ
    dof rx ry rz
    limits (-20.0 45.0)
           (-30.0 30.0)
           (-30.0 30.0)
  end
  begin
     id 13 
     name thorax
     direction -3.43026e-005 0.997776 0.0666515   
     length 2.10618   
     axis 0 0 0   XYZ
    dof rx ry rz
    limits (-20.0 45.0)
           (-30.0 30.0)
           (-30.0 30.0)
  end
  begin
     id 14 
     name lowerneck
     direction 0.0398646 0.998418 0.0396592   
     length 1.83817   
     axis 0 0 0   XYZ
    dof rx ry rz
    limits (-20.0 45.0)
           (-30.0 30.0)
           (-30.0 30.0)
  end
  begin
     id 15 
     name upperneck
     direction -0.0367268 0.961527 -0.272244   
     length 1.81975   
     axis 0 0 0   XYZ
    dof rx ry rz
    limits (-20.0 45.0)
           (-30.0 30.0)
           (-30.0 30.0)
  end
  begin
     id 16
     name head
     direction -0.0182665 0.99536 -0.0944669  
     length 1.86026  
     axis 0 0 0   XYZ
    dof rx ry rz
    limits (-20.0 45.0)
           (-30.0 30.0)
           (-30.0 30.0)
  end
  begin
     id 17 
     name lclavicle
     direction 0.924239 0.361045 0.124212  
     length 3.26878  
     axis 0 0 0   XYZ
    dof ry rz
    limits (-20.0 10.0)
           (0.0 20.0)
  end
  begin
     id 18 
     name lhumerus
     direction 1 -4.48968e-011 -2.56583e-027   
     length 4.58538   
     axis 180 -30 -90   XYZ
    dof rx ry rz
    limits (-60.0 90.0)
           (-90.0 90.0)
           (-90.0 90.0)
  end
  begin
     id 19
     name lradius
     direction 1 -4.4898e-011 -5.50375e-027   
     length 2.68935   
     axis 180 -30 -90   XYZ
    dof rx
    limits (-10.0 170.0)
  end
  begin
     id 20
     name lwrist
     direction 1 -4.48939e-011 -1.48955e-026   
     length 1.34468   
     axis 9.0955e-015 90 90   XYZ
    dof ry
    limits (-180.0 0.0)
 end
  begin
     id 21 
     name lhand
     direction 1 -4.48936e-011 -2.97907e-026   
     length 0.585058   
     axis 1.90115e-014 90 90   XYZ
    dof rx rz
    limits (-90.0 90.0)
           (-45.0 45.0)
  end
  begin
     id 22 
     name lfingers
     direction 1 -4.49082e-011 -5.96235e-026   
     length 0.471689   
     axis 3.80223e-014 90 90   XYZ
    dof rx
    limits (0.0 90.0)
  end
  begin
     id 23
     name lthumb
     direction 0.707107 -6.3489e-011 0.707107   
     length 0.677253   
     axis -90 45 -3.84942e-014   XYZ
    dof rx rz
    limits (-45.0 45.0)
           (-45.0 45.0)
  end
  begin
     id 24 
     name rclavicle
     direction -0.923098 0.371783 0.0983239   
     length 3.19656  
     axis 0 0 0   XYZ 
    dof ry rz
    limits (-10.0 20.0)
           (-20.0 0.0)
  end
  begin
     id 25 
     name rhumerus
     direction -1 -4.48976e-011 -2.5492e-027  
     length 4.4745   
     axis 180 30 90   XYZ
    dof rx ry rz
    limits (-90.0 60.0)
           (-90.0 90.0)
           (-90.0 90.0)
  end
  begin
     id 26 
     name rradius
     direction -1 -4.48941e-011 -4.36555e-027   
     length 2.93896   
     axis 180 30 90   XYZ
    dof rx
    limits (-10.0 170.0)
  end
  begin
     id 27 
     name rwrist
     direction -1 -4.49044e-011 -1.49032e-026   
     length 1.46948   
     axis 9.0955e-015 -90 -90   XYZ
    dof ry
    limits (-180.0 0.0)
  end
  begin
     id 28
     name rhand
     direction -1 -4.48826e-011 -2.97749e-026   
     length 0.405092   
     axis 1.90115e-014 -90 -90   XYZ
    dof rx rz
    limits (-90.0 90.0)
           (-45.0 45.0)
  end
  begin
     id 29
     name rfingers
     direction -1 -4.49209e-011 -5.96602e-026   
     length 0.326596   
     axis 3.80223e-014 -90 -90   XYZ
    dof rx
    limits (0.0 90.0)
  end
  begin
     id 30
     name rthumb
     direction -0.707107 -6.34776e-011 0.707107   
     length 0.468928   
     axis -90 -45 3.84942e-014   XYZ
    dof rx rz
    limits (-45.0 45.0)
           (-45.0 45.0)
  end
:hierarchy
  begin
    root lhipjoint rhipjoint lowerback
    lhipjoint lfemur
    lfemur ltibia
    ltibia lfoot
    lfoot ltoes
    rhipjoint rfemur
    rfemur rtibia
    rtibia rfoot
    rfoot rtoes
    lowerback upperback
    upperback thorax
    thorax lowerneck lclavicle rclavicle
    lowerneck upperneck
    upperneck head
    lclavicle lhumerus
    lhumerus lradius
    lradius lwrist
    lwrist lhand lthumb
    lhand lfingers
    rclavicle rhumerus
    rhumerus rradius
    rradius rwrist
    rwrist rhand rthumb
    rhand rfingers
  end

#!OML:ASF H:\Punching\Project 1\Capture day 1\Session 1\female.ASF
:FULLY-SPECIFIED
:DEGREES
423
root 0.140305 14.6583 0.975769 11.4152 -6.63592 1.08241
lowerback 2.76487 -2.27521 0.522413
upperback -5.14652 -2.82194 3.53675
thorax -6.7619 -1.32463 3.64929
lowerneck -8.86814 -1.13728 7.38985
upperneck 22.278 -3.44644 1.98708
head 8.32882 -0.850299 -0.911051
rclavicle 3.3048e-014 -2.3059e-014
rhumerus 17.618 -7.56509 -61.8235
rradius 114.785
rwrist -47.9759
rhand -6.17939 -27.1311
rfingers 7.12502
rthumb 19.6599 -56.157
lclavicle 3.3048e-014 -2.3059e-014
lhumerus 22.7727 -47.6838 83.3148
lradius 133.802
lwrist 14.3899
lhand -26.312 8.00604
lfingers 7.12502
lthumb 0.244451 37.9856
rfemur 5.87762 -1.87787 5.75146
rtibia 16.1281
rfoot -21.8636 -28.1606
rtoes -16.6881
lfemur -45.3459 1.24826 -11.0835
ltibia 43.2099
lfoot -6.50974 5.45622
ltoes -9.61403
424
root 0.12051 14.643 0.978614 11.2792 -4.56519 1.08081
lowerback 2.5726 -1.91255 0.950406
upperback -5.31586 -2.30662 3.51413
thorax -6.87853 -1.08934 3.34124
lowerneck -8.7514 -2.16407 6.35258
upperneck 22.1538 -4.79273 2.58472
head 8.26304 -1.51348 -0.66311
rclavicle -1.22253e-014 1.43125e-014
rhumerus 19.2548 -8.7882 -60.4225
rradius 110.897
rwrist -48.3367
rhand -5.86845 -28.0322
rfingers 7.12502
rthumb 19.9588 -57.0272
lclavicle -1.22253e-014 1.43125e-014
lhumerus 22.645 -48.2794 83.4825
lradius 133.306
lwrist 14.6276
lhand -26.0298 7.83313
lfingers 7.12502
lthumb 0.517003 37.8122
rfemur 7.22445 -2.31271 6.48606
rtibia 15.4278
rfoot -22.1022 -29.4528
rtoes -15.8797
lfemur -45.8132 0.411488 -11.2182
ltibia 43.1357
lfoot -6.19329 4.40402
ltoes -9.85856
425
root 0.103895 14.6282 0.981398 11.114 -2.68709 1.01096
lowerback 2.409 -1.50015 1.4765
upperback -5.4798 -1.72067 3.4535
thorax -7.00539 -0.826657 2.9337
lowerneck -8.52784 -3.16269 5.40305
upperneck 22.0535 -6.10127 3.13419
head 8.20717 -2.15741 -0.439733
rclavicle -6.23687e-015 1.74931e-014
rhumerus 21.0044 -9.95575 -59.0331
rradius 106.462
rwrist -48.8224
rhand -5.77884 -29.1022
rfingers 7.12502
rthumb 20.0449 -58.0883
lclavicle -6.23687e-015 1.74931e-014
lhumerus 22.4406 -48.8304 83.6696
lradius 132.787
lwrist 14.7218
lhand -25.73 7.64578
lfingers 7.12502
lthumb 0.806505 37.624
rfemur 8.50843 -2.66269 7.24724
rtibia 14.6927
rfoot -22.3242 -30.6591
rtoes -15.0397
lfemur -46.2169 -0.39287 -11.2642
ltibia 43.137
lfoot -5.928 3.51159
ltoes -9.99134
426
root 0.0908456 14.6145 0.983409 10.9117 -1.03028 0.893463
lowerback 2.29277 -1.04571 2.06852
upperback -5.63249 -1.07552 3.36141
thorax -7.14007 -0.540981 2.45246
lowerneck -8.23973 -4.11194 4.54848
upperneck 21.9945 -7.34822 3.6239
head 8.17026 -2.77035 -0.244516
rclavicle 1.23122e-014 -1.59028e-015
rhumerus 22.9133 -11.0221 -57.67
rradius 101.383
rwrist -49.2811
rhand -5.99585 -30.2832
rfingers 7.12502
rthumb 19.8363 -59.2909
lclavicle 1.23122e-014 -1.59028e-015
lhumerus 22.1656 -49.2976 83.8852
lradius 132.239
lwrist 14.6484
lhand -25.3987 7.43803
lfingers 7.12502
lthumb 1.12645 37.4148
rfemur 9.72101 -2.95632 7.98855
rtibia 13.9371
rfoot -22.4926 -31.7422
rtoes -14.2346
lfemur -46.5385 -1.14686 -11.2441
ltibia 43.1922
lfoot -5.71199 2.786
ltoes -10.0171
427
root 0.0812023 14.6024 0.984169 10.6619 0.386505 0.74997
lowerback 2.23974 -0.574238 2.6775
upperback -5.74879 -0.406396 3.25777
thorax -7.2587 -0.246719 1.9478
lowerneck -7.97214 -4.97841 3.79074
upperneck 21.9928 -8.49231 4.03978
head 8.16754 -3.33182 -0.08133
rclavicle 1.41696e-014 0
rhumerus 25.0617 -11.9149 -56.363
rradius 95.5647
rwrist -49.515
rhand -6.58976 -31.453
rfingers 7.12502
rthumb 19.2653 -60.5188
lclavicle 1.41696e-014 0
lhumerus 21.8939 -49.6274 84.0704
lradius 131.667
lwrist 14.4017
lhand -25.0269 7.24718
lfingers 7.12502
lthumb 1.48563 37.2218
rfemur 10.8588 -3.21542 8.66741
rtibia 13.189
rfoot -22.5997 -32.6711
rtoes -13.504
lfemur -46.7512 -1.8313 -11.184
ltibia 43.2723
lfoot -5.53656 2.21657
ltoes -9.96619
428
root 0.074608 14.5924 0.983123 10.3687 1.53886 0.609807
lowerback 2.25976 -0.119823 3.23198
upperback -5.81597 0.239707 3.18318
thorax -7.35164 0.0387287 1.50556
lowerneck -7.78817 -5.72207 3.09489
upperneck 22.0699 -9.4733 4.36398
head 8.21231 -3.81544 0.0519276
rclavicle -8.94531e-015 2.06736e-014
rhumerus 27.5433 -12.5309 -55.1362
rradius 88.9471
rwrist -49.3157
rhand -7.59152 -32.4626
rfingers 7.12502
rthumb 18.3018 -61.6216
lclavicle -8.94531e-015 2.06736e-014
lhumerus 21.6474 -49.7209 84.2165
lradius 131.084
lwrist 14.0338
lhand -24.6057 7.0475
lfingers 7.12502
lthumb 1.89234 37.0189
rfemur 11.897 -3.45803 9.23206
rtibia 12.4899
rfoot -22.6386 -33.4109
rtoes -12.8886
lfemur -46.8384 -2.42411 -11.1165
ltibia 43.347
lfoot -5.39622 1.79509
ltoes -9.871
429
root 0.0703866 14.585 0.980344 10.0397 2.4141 0.493987
lowerback 2.34828 0.317039 3.71163
upperback -5.83655 0.86043 3.12252
thorax -7.42204 0.315511 1.12066
lowerneck -7.68648 -6.34419 2.48497
upperneck 22.2203 -10.2974 4.60957
head 8.29712 -4.22086 0.154384
rclavicle 5.7896e-015 -6.36111e-015
rhumerus 30.3069 -12.8944 -54.0207
rradius 81.5389
rwrist -48.4652
rhand -8.98526 -33.1612
rfingers 7.12502
rthumb 16.9606 -62.4407
lclavicle 5.7896e-015 -6.36111e-015
lhumerus 21.4694 -49.6361 84.2719
lradius 130.506
lwrist 13.5652
lhand -24.1738 6.87857
lfingers 7.12502
lthumb 2.30947 36.8458
rfemur 12.8166 -3.68124 9.65153
rtibia 11.8798
rfoot -22.6223 -33.9477
rtoes -12.4156
lfemur -46.7878 -2.90466 -11.0648
ltibia 43.3911
lfoot -5.28704 1.50305
ltoes -9.77526
